<svg width="665" height="665" viewBox="0 0 665 665" fill="none" xmlns="http://www.w3.org/2000/svg">
<g clip-path="url(#clip0)">
<path d="M653 334.578C653 503.344 506.185 636.536 327.911 636.536C137.446 643.777 12 660.432 12 334.578C12 165.812 151.931 29 330.205 29C508.48 29 653 165.812 653 334.578Z" fill="#25AAE1"/>
<path d="M582 368.227C582 518.358 451.447 636.843 292.919 636.843C123.551 643.284 12 658.1 12 368.227C12 218.096 136.431 96.3911 294.959 96.3911C453.488 96.3911 582 218.096 582 368.227Z" fill="#F1592A"/>
<path d="M500 407.09C500 535.699 388.228 637.197 252.506 637.197C107.504 642.716 12 655.407 12 407.09C12 278.481 118.531 174.223 254.253 174.223C389.975 174.223 500 278.481 500 407.09Z" fill="#F7941E"/>
<path d="M431 439.991C431 550.6 335.032 637.893 218.5 637.893C94 642.639 12 653.554 12 439.991C12 329.382 103.468 239.716 220 239.716C336.532 239.716 431 329.382 431 439.991Z" fill="#FCB040"/>
<path d="M88.4035 500.971C88.4035 479.17 93.3413 461.282 103.217 447.307C113.279 433.146 126.509 422.711 142.906 416.003C159.49 409.295 177.564 405.941 197.129 405.941C203.651 405.941 211.011 406.128 219.21 406.5C227.408 406.687 235.607 407.246 243.806 408.177V392.525C243.806 364.389 230.203 350.321 202.999 350.321C189.955 350.321 176.167 352.371 161.633 356.47C147.099 360.383 132.471 364.855 117.751 369.886C112.347 363.923 107.969 356.097 104.615 346.408C101.447 336.532 99.4903 327.029 98.745 317.899C110.298 313.241 123.155 309.048 137.316 305.321C151.664 301.408 166.105 298.334 180.639 296.098C195.173 293.862 208.682 292.744 221.166 292.744C238.309 292.744 254.147 296.005 268.681 302.526C283.215 308.862 294.768 319.017 303.339 332.992C312.097 346.781 316.476 364.948 316.476 387.494V501.53C316.476 510.847 317.594 519.046 319.83 526.126C322.252 533.021 326.351 538.797 332.128 543.455C330.637 549.977 327.469 556.965 322.625 564.418C317.966 571.871 313.122 577.368 308.091 580.908C295.047 579.79 284.147 576.25 275.389 570.287C266.818 564.325 260.11 557.244 255.265 549.045C245.203 558.362 233.371 566.654 219.769 573.921C206.166 581.002 190.328 584.542 172.254 584.542C153.248 584.542 137.502 580.349 125.018 571.964C112.72 563.579 103.497 552.958 97.3475 540.101C91.3848 527.244 88.4035 514.201 88.4035 500.971ZM159.956 495.94C159.956 505.443 162.751 513.363 168.341 519.698C173.931 526.033 181.663 529.201 191.539 529.201C209.8 529.201 227.222 521.002 243.806 504.605V455.692C236.911 454.947 229.924 454.574 222.843 454.574C215.762 454.388 209.427 454.295 203.837 454.295C189.303 454.295 178.309 458.115 170.856 465.754C163.589 473.208 159.956 483.27 159.956 495.94Z" fill="white"/>
<path d="M103.217 447.307L101.587 446.149L101.584 446.153L103.217 447.307ZM142.906 416.003L142.156 414.149L142.149 414.152L142.906 416.003ZM219.21 406.5L219.119 408.498L219.141 408.499L219.164 408.5L219.21 406.5ZM243.806 408.177L243.58 410.165L245.806 410.418V408.177H243.806ZM161.633 356.47L162.152 358.401L162.164 358.398L162.175 358.395L161.633 356.47ZM117.751 369.886L116.269 371.229L117.153 372.204L118.398 371.778L117.751 369.886ZM104.615 346.408L102.71 347.019L102.717 347.041L102.725 347.062L104.615 346.408ZM98.745 317.899L97.9971 316.044L96.6319 316.595L96.7516 318.062L98.745 317.899ZM137.316 305.321L137.825 307.256L137.834 307.253L137.842 307.251L137.316 305.321ZM180.639 296.098L180.334 294.121L180.334 294.121L180.639 296.098ZM268.681 302.526L267.862 304.351L267.872 304.356L267.882 304.36L268.681 302.526ZM303.339 332.992L301.634 334.038L301.642 334.051L301.651 334.064L303.339 332.992ZM319.83 526.126L317.922 526.729L317.932 526.759L317.943 526.789L319.83 526.126ZM332.128 543.455L334.077 543.901L334.356 542.683L333.383 541.899L332.128 543.455ZM322.625 564.418L320.948 563.328L320.938 563.343L320.929 563.358L322.625 564.418ZM308.091 580.908L307.92 582.901L308.646 582.963L309.241 582.544L308.091 580.908ZM275.389 570.287L274.247 571.929L274.255 571.935L274.263 571.941L275.389 570.287ZM255.265 549.045L256.987 548.028L255.725 545.893L253.906 547.578L255.265 549.045ZM219.769 573.921L220.692 575.695L220.701 575.69L220.711 575.685L219.769 573.921ZM125.018 571.964L123.891 573.617L123.903 573.625L125.018 571.964ZM97.3475 540.101L95.5331 540.943L95.5381 540.954L95.5432 540.964L97.3475 540.101ZM168.341 519.698L169.84 518.375L169.84 518.375L168.341 519.698ZM243.806 504.605L245.212 506.027L245.806 505.44V504.605H243.806ZM243.806 455.692H245.806V453.897L244.02 453.704L243.806 455.692ZM222.843 454.574L222.79 456.574L222.817 456.574H222.843V454.574ZM170.856 465.754L169.424 464.358L169.424 464.358L170.856 465.754ZM90.4035 500.971C90.4035 479.47 95.2713 462.017 104.85 448.462L101.584 446.153C91.4114 460.548 86.4035 478.871 86.4035 500.971H90.4035ZM104.847 448.466C114.685 434.62 127.609 424.422 143.663 417.855L142.149 414.152C125.408 421.001 111.873 431.672 101.587 446.149L104.847 448.466ZM143.656 417.857C159.98 411.255 177.797 407.941 197.129 407.941V403.941C177.331 403.941 158.999 407.336 142.156 414.149L143.656 417.857ZM197.129 407.941C203.614 407.941 210.943 408.127 219.119 408.498L219.3 404.502C211.079 404.129 203.687 403.941 197.129 403.941V407.941ZM219.164 408.5C227.302 408.685 235.441 409.24 243.58 410.165L244.031 406.19C235.773 405.252 227.514 404.689 219.255 404.501L219.164 408.5ZM245.806 408.177V392.525H241.806V408.177H245.806ZM245.806 392.525C245.806 378.166 242.335 367.025 235.042 359.482C227.736 351.926 216.927 348.321 202.999 348.321V352.321C216.275 352.321 225.869 355.75 232.166 362.262C238.475 368.787 241.806 378.749 241.806 392.525H245.806ZM202.999 348.321C189.745 348.321 175.773 350.404 161.09 354.545L162.175 358.395C176.56 354.338 190.165 352.321 202.999 352.321V348.321ZM161.113 354.539C146.534 358.464 131.865 362.949 117.104 367.993L118.398 371.778C133.078 366.761 147.663 362.302 162.152 358.401L161.113 354.539ZM119.233 368.543C114.053 362.827 109.794 355.255 106.504 345.754L102.725 347.062C106.143 356.939 110.642 365.02 116.269 371.229L119.233 368.543ZM106.519 345.797C103.392 336.048 101.47 326.696 100.738 317.736L96.7516 318.062C97.5109 327.363 99.5018 337.016 102.71 347.019L106.519 345.797ZM99.4929 319.754C110.956 315.132 123.731 310.964 137.825 307.256L136.807 303.387C122.578 307.132 109.64 311.349 97.9971 316.044L99.4929 319.754ZM137.842 307.251C152.118 303.358 166.484 300.299 180.943 298.075L180.334 294.121C165.725 296.369 151.21 299.459 136.79 303.392L137.842 307.251ZM180.943 298.075C195.393 295.851 208.8 294.744 221.166 294.744V290.744C208.564 290.744 194.952 291.872 180.334 294.121L180.943 298.075ZM221.166 294.744C238.048 294.744 253.605 297.954 267.862 304.351L269.5 300.702C254.689 294.056 238.569 290.744 221.166 290.744V294.744ZM267.882 304.36C282.027 310.526 293.269 320.399 301.634 334.038L305.044 331.946C296.266 317.635 284.403 307.198 269.48 300.693L267.882 304.36ZM301.651 334.064C310.141 347.432 314.476 365.189 314.476 387.494H318.476C318.476 364.707 314.052 346.129 305.027 331.92L301.651 334.064ZM314.476 387.494V501.53H318.476V387.494H314.476ZM314.476 501.53C314.476 511.002 315.611 519.411 317.922 526.729L321.737 525.524C319.576 518.681 318.476 510.692 318.476 501.53H314.476ZM317.943 526.789C320.49 534.04 324.811 540.124 330.872 545.012L333.383 541.899C327.891 537.47 324.013 532.001 321.716 525.463L317.943 526.789ZM330.178 543.01C328.754 549.241 325.704 556.011 320.948 563.328L324.301 565.508C329.235 557.918 332.52 550.713 334.077 543.901L330.178 543.01ZM320.929 563.358C316.356 570.674 311.68 575.937 306.94 579.273L309.241 582.544C314.563 578.799 319.577 573.068 324.321 565.478L320.929 563.358ZM308.261 578.916C295.48 577.82 284.929 574.363 276.515 568.634L274.263 571.941C283.364 578.137 294.614 581.761 307.92 582.901L308.261 578.916ZM276.531 568.646C268.173 562.831 261.672 555.956 256.987 548.028L253.543 550.063C258.548 558.532 265.463 565.818 274.247 571.929L276.531 568.646ZM253.906 547.578C243.984 556.765 232.296 564.961 218.826 572.157L220.711 575.685C234.446 568.347 246.422 559.959 256.624 550.513L253.906 547.578ZM218.845 572.147C205.575 579.055 190.064 582.542 172.254 582.542V586.542C190.592 586.542 206.758 582.948 220.692 575.695L218.845 572.147ZM172.254 582.542C153.54 582.542 138.21 578.416 126.133 570.304L123.903 573.625C136.794 582.283 152.955 586.542 172.254 586.542V582.542ZM126.145 570.312C114.125 562.117 105.142 551.763 99.1518 539.239L95.5432 540.964C101.851 554.154 111.315 565.042 123.891 573.617L126.145 570.312ZM99.1619 539.26C93.3126 526.648 90.4035 513.89 90.4035 500.971H86.4035C86.4035 514.512 89.457 527.841 95.5331 540.943L99.1619 539.26ZM157.956 495.94C157.956 505.866 160.888 514.274 166.841 521.021L169.84 518.375C164.613 512.451 161.956 505.021 161.956 495.94H157.956ZM166.841 521.021C172.876 527.861 181.196 531.201 191.539 531.201V527.201C182.13 527.201 174.985 524.206 169.84 518.375L166.841 521.021ZM191.539 531.201C210.461 531.201 228.362 522.687 245.212 506.027L242.399 503.183C226.081 519.317 209.138 527.201 191.539 527.201V531.201ZM245.806 504.605V455.692H241.806V504.605H245.806ZM244.02 453.704C237.053 452.951 229.994 452.574 222.843 452.574V456.574C229.853 456.574 236.769 456.943 243.591 457.681L244.02 453.704ZM222.896 452.575C215.802 452.388 209.448 452.295 203.837 452.295V456.295C209.406 456.295 215.723 456.388 222.79 456.574L222.896 452.575ZM203.837 452.295C188.965 452.295 177.374 456.209 169.424 464.358L172.288 467.151C179.244 460.02 189.641 456.295 203.837 456.295V452.295ZM169.424 464.358C161.717 472.263 157.956 482.868 157.956 495.94H161.956C161.956 483.671 165.461 474.152 172.288 467.151L169.424 464.358Z" fill="white"/>
</g>
<defs>
<clipPath id="clip0">
<rect width="665" height="665" fill="white"/>
</clipPath>
</defs>
</svg>
