<svg width="266" height="105" viewBox="0 0 266 105" fill="none" xmlns="http://www.w3.org/2000/svg">
<path d="M266 52.5C266 81.495 242.495 105 213.5 105C184.505 105 161 81.495 161 52.5C161 23.5051 184.505 0 213.5 0C242.495 0 266 23.5051 266 52.5Z" fill="#FCB040"/>
<path d="M13.816 68C13.368 68 12.968 67.856 12.616 67.568C12.296 67.28 12.072 66.912 11.944 66.464L2.104 33.2C1.88 32.432 1.912 31.792 2.2 31.28C2.52 30.768 3.016 30.512 3.688 30.512C4.072 30.512 4.424 30.624 4.744 30.848C5.096 31.04 5.352 31.408 5.512 31.952L13.816 60.896L21.688 32.768C21.784 32.416 21.992 32.128 22.312 31.904C22.664 31.68 23.048 31.568 23.464 31.568C23.848 31.568 24.216 31.68 24.568 31.904C24.92 32.096 25.144 32.4 25.24 32.816L33.16 60.944L41.512 31.76C41.736 30.928 42.344 30.512 43.336 30.512C44.008 30.512 44.472 30.784 44.728 31.328C44.984 31.84 45.016 32.464 44.824 33.2L35.032 66.416C34.68 67.472 34.04 68 33.112 68C32.664 68 32.264 67.856 31.912 67.568C31.592 67.28 31.368 66.912 31.24 66.464L23.464 38.096L15.736 66.416C15.352 67.472 14.712 68 13.816 68ZM61.822 68.24C59.262 68.24 56.974 67.664 54.958 66.512C52.942 65.36 51.358 63.776 50.206 61.76C49.054 59.744 48.478 57.456 48.478 54.896C48.478 52.304 49.054 50 50.206 47.984C51.358 45.968 52.942 44.384 54.958 43.232C56.974 42.08 59.262 41.504 61.822 41.504C64.382 41.504 66.654 42.08 68.638 43.232C70.654 44.384 72.238 45.968 73.39 47.984C74.542 50 75.134 52.304 75.166 54.896C75.166 57.456 74.574 59.744 73.39 61.76C72.238 63.776 70.654 65.36 68.638 66.512C66.654 67.664 64.382 68.24 61.822 68.24ZM61.822 64.88C63.678 64.88 65.342 64.448 66.814 63.584C68.286 62.72 69.438 61.536 70.27 60.032C71.102 58.528 71.518 56.816 71.518 54.896C71.518 52.976 71.102 51.264 70.27 49.76C69.438 48.224 68.286 47.024 66.814 46.16C65.342 45.296 63.678 44.864 61.822 44.864C59.966 44.864 58.302 45.296 56.83 46.16C55.358 47.024 54.19 48.224 53.326 49.76C52.494 51.264 52.078 52.976 52.078 54.896C52.078 56.816 52.494 58.528 53.326 60.032C54.19 61.536 55.358 62.72 56.83 63.584C58.302 64.448 59.966 64.88 61.822 64.88ZM88.9784 68C87.7624 68 87.1544 67.392 87.1544 66.176V43.568C87.1544 42.352 87.7624 41.744 88.9784 41.744C90.1944 41.744 90.8024 42.352 90.8024 43.568V45.632C91.7624 44.352 92.9464 43.344 94.3544 42.608C95.7624 41.84 97.3144 41.456 99.0104 41.456C100.482 41.456 101.618 41.664 102.418 42.08C103.218 42.496 103.522 43.104 103.33 43.904C103.17 44.64 102.786 45.024 102.178 45.056C101.602 45.056 100.914 45.024 100.114 44.96C98.3224 44.8 96.7224 44.992 95.3144 45.536C93.9384 46.048 92.8344 46.848 92.0024 47.936C91.2024 49.024 90.8024 50.32 90.8024 51.824V66.176C90.8024 67.392 90.1944 68 88.9784 68ZM115.763 68C115.219 68 114.771 67.84 114.419 67.52C114.099 67.168 113.939 66.72 113.939 66.176V32.336C113.939 31.792 114.099 31.36 114.419 31.04C114.771 30.688 115.219 30.512 115.763 30.512C116.307 30.512 116.739 30.688 117.059 31.04C117.411 31.36 117.587 31.792 117.587 32.336V54.176L131.123 41.936C131.955 41.2 132.739 41.232 133.475 42.032C133.827 42.416 133.987 42.832 133.955 43.28C133.955 43.696 133.763 44.064 133.379 44.384L123.779 53.072L133.763 65.36C134.467 66.224 134.387 67.024 133.523 67.76C133.107 68.112 132.675 68.256 132.227 68.192C131.779 68.16 131.395 67.936 131.075 67.52L121.187 55.376L117.587 58.688V66.176C117.587 66.72 117.411 67.168 117.059 67.52C116.739 67.84 116.307 68 115.763 68ZM159.503 68.24C157.007 68.24 154.751 67.664 152.735 66.512C150.751 65.36 149.167 63.792 147.983 61.808C146.831 59.792 146.239 57.536 146.207 55.04V32.384C146.207 31.808 146.367 31.36 146.687 31.04C147.039 30.688 147.503 30.512 148.079 30.512C148.623 30.512 149.055 30.688 149.375 31.04C149.727 31.36 149.903 31.808 149.903 32.384V46.496C150.959 44.992 152.351 43.792 154.079 42.896C155.839 41.968 157.791 41.504 159.935 41.504C162.399 41.504 164.607 42.096 166.559 43.28C168.511 44.432 170.047 46.016 171.167 48.032C172.319 50.048 172.895 52.32 172.895 54.848C172.895 57.408 172.303 59.696 171.119 61.712C169.967 63.728 168.383 65.328 166.367 66.512C164.351 67.664 162.063 68.24 159.503 68.24ZM159.503 64.88C161.359 64.88 163.023 64.448 164.495 63.584C165.967 62.688 167.119 61.488 167.951 59.984C168.815 58.48 169.247 56.768 169.247 54.848C169.247 52.96 168.815 51.264 167.951 49.76C167.119 48.224 165.967 47.024 164.495 46.16C163.023 45.296 161.359 44.864 159.503 44.864C157.679 44.864 156.031 45.296 154.559 46.16C153.087 47.024 151.935 48.224 151.103 49.76C150.271 51.264 149.855 52.96 149.855 54.848C149.855 56.768 150.271 58.48 151.103 59.984C151.935 61.488 153.087 62.688 154.559 63.584C156.031 64.448 157.679 64.88 159.503 64.88ZM190.609 68C188.689 68 187.105 67.232 185.857 65.696C184.609 64.128 183.985 62.128 183.985 59.696V32.336C183.985 31.792 184.145 31.36 184.465 31.04C184.817 30.688 185.265 30.512 185.809 30.512C186.353 30.512 186.785 30.688 187.105 31.04C187.457 31.36 187.633 31.792 187.633 32.336V59.696C187.633 61.072 187.905 62.192 188.449 63.056C189.025 63.92 189.745 64.352 190.609 64.352H191.809C192.289 64.352 192.673 64.528 192.961 64.88C193.249 65.2 193.393 65.632 193.393 66.176C193.393 66.72 193.185 67.168 192.769 67.52C192.385 67.84 191.873 68 191.233 68H190.609ZM213.791 68.24C211.231 68.24 208.943 67.664 206.927 66.512C204.911 65.36 203.327 63.776 202.175 61.76C201.023 59.744 200.447 57.456 200.447 54.896C200.447 52.304 201.023 50 202.175 47.984C203.327 45.968 204.911 44.384 206.927 43.232C208.943 42.08 211.231 41.504 213.791 41.504C216.351 41.504 218.623 42.08 220.607 43.232C222.623 44.384 224.207 45.968 225.359 47.984C226.511 50 227.103 52.304 227.135 54.896C227.135 57.456 226.543 59.744 225.359 61.76C224.207 63.776 222.623 65.36 220.607 66.512C218.623 67.664 216.351 68.24 213.791 68.24ZM213.791 64.88C215.647 64.88 217.311 64.448 218.783 63.584C220.255 62.72 221.407 61.536 222.239 60.032C223.071 58.528 223.487 56.816 223.487 54.896C223.487 52.976 223.071 51.264 222.239 49.76C221.407 48.224 220.255 47.024 218.783 46.16C217.311 45.296 215.647 44.864 213.791 44.864C211.935 44.864 210.271 45.296 208.799 46.16C207.327 47.024 206.159 48.224 205.295 49.76C204.463 51.264 204.047 52.976 204.047 54.896C204.047 56.816 204.463 58.528 205.295 60.032C206.159 61.536 207.327 62.72 208.799 63.584C210.271 64.448 211.935 64.88 213.791 64.88ZM250.835 68.24C248.307 68.24 246.051 67.664 244.067 66.512C242.115 65.328 240.563 63.728 239.411 61.712C238.291 59.696 237.731 57.424 237.731 54.896C237.731 52.336 238.275 50.048 239.363 48.032C240.451 46.016 241.939 44.432 243.827 43.28C245.715 42.096 247.891 41.504 250.355 41.504C254.355 41.504 257.603 43.04 260.099 46.112C260.451 46.496 260.579 46.912 260.483 47.36C260.387 47.776 260.115 48.144 259.667 48.464C259.315 48.72 258.915 48.816 258.467 48.752C258.051 48.656 257.683 48.416 257.363 48.032C255.507 45.92 253.171 44.864 250.355 44.864C248.563 44.864 246.979 45.296 245.603 46.16C244.259 47.024 243.203 48.208 242.435 49.712C241.699 51.216 241.331 52.944 241.331 54.896C241.331 56.816 241.731 58.528 242.531 60.032C243.331 61.536 244.451 62.72 245.891 63.584C247.331 64.448 248.979 64.88 250.835 64.88C253.395 64.88 255.459 64.192 257.027 62.816C257.411 62.496 257.811 62.32 258.227 62.288C258.643 62.256 259.027 62.384 259.379 62.672C259.763 63.024 259.971 63.424 260.003 63.872C260.067 64.32 259.923 64.704 259.571 65.024C257.235 67.168 254.323 68.24 250.835 68.24Z" fill="#1F2937"/>
<path d="M12.616 67.568L11.947 68.3113L11.9645 68.327L11.9828 68.342L12.616 67.568ZM11.944 66.464L12.9056 66.1893L12.9029 66.1803L11.944 66.464ZM2.104 33.2L1.14399 33.48L1.14508 33.4837L2.104 33.2ZM2.2 31.28L1.352 30.75L1.33975 30.7696L1.32842 30.7897L2.2 31.28ZM4.744 30.848L4.17054 31.6672L4.21621 31.6992L4.26515 31.7259L4.744 30.848ZM5.512 31.952L6.47324 31.6762L6.47137 31.6698L5.512 31.952ZM13.816 60.896L12.8548 61.1718L13.8279 64.5638L14.779 61.1655L13.816 60.896ZM21.688 32.768L22.651 33.0375L22.6528 33.0311L21.688 32.768ZM22.312 31.904L21.7751 31.0603L21.7566 31.0721L21.7385 31.0848L22.312 31.904ZM24.568 31.904L24.0311 32.7477L24.0596 32.7658L24.0892 32.7819L24.568 31.904ZM25.24 32.816L24.2656 33.0409L24.271 33.0641L24.2774 33.087L25.24 32.816ZM33.16 60.944L32.1974 61.215L33.1522 64.6058L34.1214 61.2191L33.16 60.944ZM41.512 31.76L42.4734 32.0351L42.4756 32.0276L42.4776 32.02L41.512 31.76ZM44.728 31.328L43.8232 31.7538L43.8283 31.7646L43.8336 31.7752L44.728 31.328ZM44.824 33.2L45.7832 33.4828L45.7876 33.4677L45.7916 33.4524L44.824 33.2ZM35.032 66.416L35.9807 66.7322L35.9862 66.7156L35.9912 66.6988L35.032 66.416ZM31.912 67.568L31.243 68.3113L31.2605 68.327L31.2788 68.342L31.912 67.568ZM31.24 66.464L30.2755 66.7284L30.2785 66.7387L31.24 66.464ZM23.464 38.096L24.4284 37.8316L23.4618 34.3054L22.4993 37.8327L23.464 38.096ZM15.736 66.416L16.6758 66.7577L16.6899 66.719L16.7007 66.6793L15.736 66.416ZM13.816 67C13.6026 67 13.4255 66.9383 13.2492 66.794L11.9828 68.342C12.5105 68.7737 13.1334 69 13.816 69V67ZM13.285 66.8247C13.116 66.6727 12.9863 66.4722 12.9055 66.1893L10.9825 66.7387C11.1577 67.3518 11.476 67.8873 11.947 68.3113L13.285 66.8247ZM12.9029 66.1803L3.06292 32.9163L1.14508 33.4837L10.9851 66.7477L12.9029 66.1803ZM3.064 32.92C2.88728 32.3141 2.95754 31.973 3.07158 31.7703L1.32842 30.7897C0.866461 31.611 0.872725 32.5499 1.144 33.48L3.064 32.92ZM3.048 31.81C3.16196 31.6277 3.31442 31.512 3.688 31.512V29.512C2.71758 29.512 1.87804 29.9083 1.352 30.75L3.048 31.81ZM3.688 31.512C3.86308 31.512 4.01553 31.5587 4.17054 31.6672L5.31746 30.0288C4.83247 29.6893 4.28092 29.512 3.688 29.512V31.512ZM4.26515 31.7259C4.3022 31.7461 4.43613 31.838 4.55263 32.2342L6.47137 31.6698C6.26787 30.978 5.8898 30.3339 5.22285 29.9701L4.26515 31.7259ZM4.55078 32.2278L12.8548 61.1718L14.7772 60.6202L6.47322 31.6762L4.55078 32.2278ZM14.779 61.1655L22.651 33.0375L20.725 32.4985L12.853 60.6265L14.779 61.1655ZM22.6528 33.0311C22.6828 32.9211 22.7423 32.8234 22.8855 32.7232L21.7385 31.0848C21.2417 31.4325 20.8852 31.9109 20.7232 32.5049L22.6528 33.0311ZM22.8489 32.7477C23.0409 32.6254 23.2388 32.568 23.464 32.568V30.568C22.8572 30.568 22.2871 30.7346 21.7751 31.0603L22.8489 32.7477ZM23.464 32.568C23.6414 32.568 23.8251 32.6166 24.0311 32.7477L25.1049 31.0603C24.6069 30.7434 24.0546 30.568 23.464 30.568V32.568ZM24.0892 32.7819C24.1724 32.8273 24.2292 32.883 24.2656 33.0409L26.2144 32.5911C26.0588 31.917 25.6676 31.3647 25.0469 31.0261L24.0892 32.7819ZM24.2774 33.087L32.1974 61.215L34.1226 60.673L26.2026 32.545L24.2774 33.087ZM34.1214 61.2191L42.4734 32.0351L40.5506 31.4849L32.1986 60.6689L34.1214 61.2191ZM42.4776 32.02C42.5387 31.793 42.626 31.7004 42.7007 31.6493C42.7897 31.5884 42.9731 31.512 43.336 31.512V29.512C42.7069 29.512 42.0903 29.6436 41.5713 29.9987C41.038 30.3636 40.7093 30.895 40.5464 31.5L42.4776 32.02ZM43.336 31.512C43.5381 31.512 43.6375 31.5525 43.6823 31.5787C43.7201 31.6008 43.7706 31.642 43.8232 31.7538L45.6328 30.9022C45.4294 30.47 45.12 30.1032 44.6937 29.8533C44.2745 29.6075 43.8059 29.512 43.336 29.512V31.512ZM43.8336 31.7752C43.9499 32.0078 44.0076 32.3678 43.8564 32.9476L45.7916 33.4524C46.0244 32.5602 46.0181 31.6722 45.6224 30.8808L43.8336 31.7752ZM43.8648 32.9172L34.0728 66.1332L35.9912 66.6988L45.7832 33.4828L43.8648 32.9172ZM34.0833 66.0998C33.947 66.5089 33.7854 66.7223 33.6516 66.8326C33.5321 66.9312 33.373 67 33.112 67V69C33.779 69 34.4039 68.8048 34.9244 68.3754C35.4306 67.9577 35.765 67.3791 35.9807 66.7322L34.0833 66.0998ZM33.112 67C32.8986 67 32.7215 66.9383 32.5452 66.794L31.2788 68.342C31.8065 68.7737 32.4294 69 33.112 69V67ZM32.581 66.8247C32.412 66.6727 32.2823 66.4722 32.2015 66.1893L30.2785 66.7387C30.4537 67.3518 30.772 67.8873 31.243 68.3113L32.581 66.8247ZM32.2044 66.1996L24.4284 37.8316L22.4996 38.3604L30.2756 66.7284L32.2044 66.1996ZM22.4993 37.8327L14.7713 66.1527L16.7007 66.6793L24.4287 38.3593L22.4993 37.8327ZM14.7962 66.0743C14.6444 66.4918 14.4736 66.7155 14.3316 66.8326C14.2056 66.9366 14.0517 67 13.816 67V69C14.4763 69 15.0904 68.7994 15.6044 68.3754C16.1025 67.9645 16.4436 67.3962 16.6758 66.7577L14.7962 66.0743ZM54.958 66.512L55.4541 65.6438L55.4541 65.6438L54.958 66.512ZM50.206 61.76L51.0742 61.2639L51.0742 61.2639L50.206 61.76ZM50.206 47.984L49.3378 47.4879L49.3378 47.4879L50.206 47.984ZM54.958 43.232L55.4541 44.1002L55.4541 44.1002L54.958 43.232ZM68.638 43.232L68.1359 44.0968L68.1419 44.1002L68.638 43.232ZM73.39 47.984L74.2582 47.4879L74.2582 47.4879L73.39 47.984ZM75.166 54.896L76.1661 54.896L76.1659 54.8837L75.166 54.896ZM73.39 61.76L72.5277 61.2535L72.5218 61.2639L73.39 61.76ZM68.638 66.512L68.1419 65.6437L68.1359 65.6472L68.638 66.512ZM66.814 63.584L66.3078 62.7216L66.3078 62.7216L66.814 63.584ZM70.27 60.032L71.145 60.5161L71.145 60.5161L70.27 60.032ZM70.27 49.76L69.3907 50.2363L69.395 50.2441L70.27 49.76ZM66.814 46.16L66.3078 47.0224L66.3078 47.0224L66.814 46.16ZM56.83 46.16L57.3362 47.0224L57.3362 47.0224L56.83 46.16ZM53.326 49.76L52.4544 49.2697L52.451 49.2759L53.326 49.76ZM53.326 60.032L52.451 60.5161L52.4549 60.5231L52.4589 60.5301L53.326 60.032ZM56.83 63.584L57.3362 62.7216L57.3362 62.7216L56.83 63.584ZM61.822 67.24C59.4177 67.24 57.3039 66.7008 55.4541 65.6438L54.4619 67.3802C56.6441 68.6272 59.1063 69.24 61.822 69.24V67.24ZM55.4541 65.6438C53.5932 64.5803 52.1377 63.1248 51.0742 61.2639L49.3378 62.2561C50.5783 64.4272 52.2908 66.1397 54.4619 67.3802L55.4541 65.6438ZM51.0742 61.2639C50.0172 59.4141 49.478 57.3003 49.478 54.896H47.478C47.478 57.6117 48.0908 60.0739 49.3378 62.2561L51.0742 61.2639ZM49.478 54.896C49.478 52.4573 50.0183 50.328 51.0742 48.4801L49.3378 47.4879C48.0897 49.672 47.478 52.1507 47.478 54.896H49.478ZM51.0742 48.4801C52.1377 46.6192 53.5932 45.1637 55.4541 44.1002L54.4619 42.3638C52.2908 43.6043 50.5783 45.3168 49.3378 47.4879L51.0742 48.4801ZM55.4541 44.1002C57.3039 43.0432 59.4177 42.504 61.822 42.504V40.504C59.1063 40.504 56.6441 41.1168 54.4619 42.3638L55.4541 44.1002ZM61.822 42.504C64.2265 42.504 66.3215 43.0433 68.1359 44.0968L69.1401 42.3672C66.9865 41.1167 64.5375 40.504 61.822 40.504V42.504ZM68.1419 44.1002C70.0028 45.1637 71.4583 46.6192 72.5218 48.4801L74.2582 47.4879C73.0177 45.3168 71.3052 43.6043 69.1341 42.3638L68.1419 44.1002ZM72.5218 48.4801C73.58 50.3321 74.1359 52.466 74.1661 54.9083L76.1659 54.8837C76.1321 52.142 75.504 49.6679 74.2582 47.4879L72.5218 48.4801ZM74.166 54.896C74.166 57.2954 73.6131 59.4055 72.5277 61.2536L74.2523 62.2664C75.5349 60.0825 76.166 57.6166 76.166 54.896H74.166ZM72.5218 61.2639C71.4583 63.1248 70.0028 64.5803 68.1419 65.6438L69.1341 67.3802C71.3052 66.1397 73.0177 64.4272 74.2582 62.2561L72.5218 61.2639ZM68.1359 65.6472C66.3215 66.7007 64.2265 67.24 61.822 67.24V69.24C64.5375 69.24 66.9865 68.6273 69.1401 67.3768L68.1359 65.6472ZM61.822 65.88C63.8399 65.88 65.6814 65.4083 67.3202 64.4464L66.3078 62.7216C65.0026 63.4877 63.5161 63.88 61.822 63.88V65.88ZM67.3202 64.4464C68.948 63.491 70.2269 62.1758 71.145 60.5161L69.395 59.5479C68.6491 60.8962 67.624 61.949 66.3078 62.7216L67.3202 64.4464ZM71.145 60.5161C72.0683 58.8472 72.518 56.9651 72.518 54.896H70.518C70.518 56.6669 70.1357 58.2088 69.395 59.5479L71.145 60.5161ZM72.518 54.896C72.518 52.8269 72.0683 50.9448 71.145 49.2759L69.395 50.2441C70.1357 51.5832 70.518 53.1251 70.518 54.896H72.518ZM71.1493 49.2837C70.2326 47.5914 68.9533 46.2561 67.3202 45.2976L66.3078 47.0224C67.6187 47.7919 68.6434 48.8566 69.3907 50.2363L71.1493 49.2837ZM67.3202 45.2976C65.6814 44.3357 63.8399 43.864 61.822 43.864V45.864C63.5161 45.864 65.0026 46.2563 66.3078 47.0224L67.3202 45.2976ZM61.822 43.864C59.8041 43.864 57.9626 44.3357 56.3238 45.2976L57.3362 47.0224C58.6414 46.2563 60.1279 45.864 61.822 45.864V43.864ZM56.3238 45.2976C54.6941 46.2541 53.4022 47.5848 52.4544 49.2697L54.1976 50.2503C54.9778 48.8632 56.0219 47.7939 57.3362 47.0224L56.3238 45.2976ZM52.451 49.2759C51.5277 50.9448 51.078 52.8269 51.078 54.896H53.078C53.078 53.1251 53.4603 51.5832 54.201 50.2441L52.451 49.2759ZM51.078 54.896C51.078 56.9651 51.5277 58.8472 52.451 60.5161L54.201 59.5479C53.4603 58.2088 53.078 56.6669 53.078 54.896H51.078ZM52.4589 60.5301C53.408 62.1823 54.6994 63.4929 56.3238 64.4464L57.3362 62.7216C56.0166 61.9471 54.972 60.8897 54.1931 59.5339L52.4589 60.5301ZM56.3238 64.4464C57.9626 65.4083 59.8041 65.88 61.822 65.88V63.88C60.1279 63.88 58.6414 63.4877 57.3362 62.7216L56.3238 64.4464ZM90.8024 45.632H89.8024V48.632L91.6024 46.232L90.8024 45.632ZM94.3544 42.608L94.8176 43.4942L94.8255 43.4901L94.8332 43.4859L94.3544 42.608ZM103.33 43.904L102.358 43.6706L102.355 43.6811L102.353 43.6916L103.33 43.904ZM102.178 45.056V46.056H102.205L102.231 46.0546L102.178 45.056ZM100.114 44.96L100.025 45.9561L100.035 45.9568L100.114 44.96ZM95.3144 45.536L95.6631 46.4733L95.6748 46.4688L95.3144 45.536ZM92.0024 47.936L91.208 47.3285L91.2023 47.336L91.1967 47.3436L92.0024 47.936ZM88.9784 67C88.5245 67 88.3678 66.8872 88.3175 66.8369C88.2672 66.7866 88.1544 66.6299 88.1544 66.176H86.1544C86.1544 66.9381 86.3456 67.6934 86.9033 68.2511C87.4609 68.8088 88.2162 69 88.9784 69V67ZM88.1544 66.176V43.568H86.1544V66.176H88.1544ZM88.1544 43.568C88.1544 43.1141 88.2672 42.9574 88.3175 42.9071C88.3678 42.8568 88.5245 42.744 88.9784 42.744V40.744C88.2162 40.744 87.4609 40.9352 86.9033 41.4929C86.3456 42.0506 86.1544 42.8059 86.1544 43.568H88.1544ZM88.9784 42.744C89.4322 42.744 89.5889 42.8568 89.6393 42.9071C89.6896 42.9574 89.8024 43.1141 89.8024 43.568H91.8024C91.8024 42.8059 91.6112 42.0506 91.0535 41.4929C90.4958 40.9352 89.7405 40.744 88.9784 40.744V42.744ZM89.8024 43.568V45.632H91.8024V43.568H89.8024ZM91.6024 46.232C92.4735 45.0705 93.5428 44.1606 94.8176 43.4942L93.8911 41.7218C92.35 42.5274 91.0512 43.6335 90.0024 45.032L91.6024 46.232ZM94.8332 43.4859C96.0859 42.8026 97.4718 42.456 99.0104 42.456V40.456C97.157 40.456 95.4389 40.8774 93.8755 41.7301L94.8332 43.4859ZM99.0104 42.456C100.412 42.456 101.362 42.658 101.957 42.9672L102.88 41.1928C101.874 40.67 100.553 40.456 99.0104 40.456V42.456ZM101.957 42.9672C102.23 43.1094 102.321 43.2329 102.352 43.2952C102.378 43.3467 102.411 43.4495 102.358 43.6706L104.303 44.1374C104.442 43.5585 104.419 42.9573 104.141 42.4008C103.868 41.8551 103.406 41.4666 102.88 41.1928L101.957 42.9672ZM102.353 43.6916C102.299 43.942 102.229 44.0234 102.215 44.0369C102.21 44.042 102.209 44.0425 102.206 44.0438C102.201 44.0458 102.178 44.0546 102.126 44.0574L102.231 46.0546C102.749 46.0273 103.241 45.8393 103.629 45.4511C104 45.0806 104.202 44.602 104.308 44.1164L102.353 43.6916ZM102.178 44.056C101.637 44.056 100.977 44.0258 100.194 43.9632L100.035 45.9568C100.852 46.0222 101.568 46.056 102.178 46.056V44.056ZM100.203 43.964C98.2877 43.7929 96.5298 43.9943 94.954 44.6032L95.6748 46.4688C96.9149 45.9897 98.3571 45.8071 100.025 45.956L100.203 43.964ZM94.9656 44.5988C93.4262 45.1716 92.1628 46.08 91.208 47.3285L92.7967 48.5434C93.5059 47.616 94.4505 46.9244 95.6631 46.4732L94.9656 44.5988ZM91.1967 47.3436C90.2562 48.6227 89.8024 50.1323 89.8024 51.824H91.8024C91.8024 50.5077 92.1486 49.4253 92.808 48.5284L91.1967 47.3436ZM89.8024 51.824V66.176H91.8024V51.824H89.8024ZM89.8024 66.176C89.8024 66.6299 89.6896 66.7866 89.6393 66.8369C89.5889 66.8872 89.4322 67 88.9784 67V69C89.7405 69 90.4958 68.8088 91.0535 68.2511C91.6112 67.6934 91.8024 66.9381 91.8024 66.176H89.8024ZM114.419 67.52L113.679 68.1927L113.711 68.2279L113.746 68.2599L114.419 67.52ZM114.419 31.04L113.712 30.3329L113.712 30.3329L114.419 31.04ZM117.059 31.04L116.319 31.7127L116.351 31.7479L116.386 31.7799L117.059 31.04ZM117.587 54.176H116.587V56.4285L118.257 54.9177L117.587 54.176ZM131.123 41.936L130.46 41.187L130.452 41.1943L131.123 41.936ZM133.475 42.032L134.212 41.3563L134.211 41.3549L133.475 42.032ZM133.955 43.28L132.957 43.2088L132.955 43.2443V43.28H133.955ZM133.379 44.384L132.739 43.6158L132.723 43.6289L132.708 43.6426L133.379 44.384ZM123.779 53.072L123.108 52.3306L122.405 52.9667L123.003 53.7026L123.779 53.072ZM133.763 65.36L132.987 65.9906L132.988 65.9917L133.763 65.36ZM133.523 67.76L134.169 68.5234L134.171 68.5212L133.523 67.76ZM132.227 68.192L132.368 67.2021L132.333 67.1971L132.298 67.1945L132.227 68.192ZM131.075 67.52L131.867 66.9103L131.859 66.8993L131.85 66.8886L131.075 67.52ZM121.187 55.376L121.962 54.7446L121.291 53.9208L120.51 54.6401L121.187 55.376ZM117.587 58.688L116.91 57.9521L116.587 58.2492V58.688H117.587ZM117.059 67.52L116.352 66.8129L116.352 66.8129L117.059 67.52ZM115.763 67C115.429 67 115.233 66.9087 115.091 66.7801L113.746 68.2599C114.309 68.7713 115.008 69 115.763 69V67ZM115.159 66.8473C115.03 66.7059 114.939 66.5095 114.939 66.176H112.939C112.939 66.9305 113.167 67.6301 113.679 68.1927L115.159 66.8473ZM114.939 66.176V32.336H112.939V66.176H114.939ZM114.939 32.336C114.939 31.9999 115.03 31.8426 115.126 31.7471L113.712 30.3329C113.167 30.8774 112.939 31.5841 112.939 32.336H114.939ZM115.126 31.7471C115.272 31.601 115.457 31.512 115.763 31.512V29.512C114.981 29.512 114.27 29.775 113.712 30.3329L115.126 31.7471ZM115.763 31.512C116.07 31.512 116.216 31.6 116.319 31.7127L117.799 30.3673C117.261 29.776 116.544 29.512 115.763 29.512V31.512ZM116.386 31.7799C116.499 31.8823 116.587 32.0291 116.587 32.336H118.587C118.587 31.5549 118.323 30.8376 117.731 30.3001L116.386 31.7799ZM116.587 32.336V54.176H118.587V32.336H116.587ZM118.257 54.9177L131.793 42.6777L130.452 41.1943L116.916 53.4343L118.257 54.9177ZM131.785 42.685C132.089 42.4166 132.251 42.4054 132.294 42.4072C132.332 42.4087 132.48 42.4277 132.739 42.7091L134.211 41.3549C133.734 40.8363 133.121 40.4393 132.376 40.4088C131.635 40.3786 130.989 40.7194 130.46 41.187L131.785 42.685ZM132.738 42.7077C132.936 42.9244 132.967 43.0793 132.957 43.2088L134.952 43.3512C135.007 42.5846 134.717 41.9076 134.212 41.3563L132.738 42.7077ZM132.955 43.28C132.955 43.339 132.945 43.4435 132.739 43.6158L134.019 45.1522C134.58 44.6845 134.955 44.053 134.955 43.28H132.955ZM132.708 43.6426L123.108 52.3306L124.45 53.8134L134.05 45.1254L132.708 43.6426ZM123.003 53.7026L132.987 65.9906L134.539 64.7294L124.555 52.4414L123.003 53.7026ZM132.988 65.9917C133.238 66.2992 133.241 66.4597 133.236 66.5085C133.23 66.5617 133.191 66.7289 132.874 66.9988L134.171 68.5212C134.718 68.0551 135.151 67.4543 135.226 66.7075C135.301 65.9563 134.991 65.2848 134.538 64.7283L132.988 65.9917ZM132.877 66.9966C132.63 67.2052 132.476 67.2175 132.368 67.2021L132.085 69.1819C132.873 69.2945 133.583 69.0188 134.169 68.5234L132.877 66.9966ZM132.298 67.1945C132.184 67.1864 132.046 67.1419 131.867 66.9103L130.282 68.1297C130.744 68.7301 131.374 69.1336 132.156 69.1895L132.298 67.1945ZM131.85 66.8886L121.962 54.7446L120.411 56.0074L130.299 68.1514L131.85 66.8886ZM120.51 54.6401L116.91 57.9521L118.264 59.4239L121.864 56.1119L120.51 54.6401ZM116.587 58.688V66.176H118.587V58.688H116.587ZM116.587 66.176C116.587 66.4819 116.498 66.6668 116.352 66.8129L117.766 68.2271C118.324 67.6692 118.587 66.9581 118.587 66.176H116.587ZM116.352 66.8129C116.256 66.9084 116.099 67 115.763 67V69C116.515 69 117.221 68.7716 117.766 68.2271L116.352 66.8129ZM152.735 66.512L152.233 67.3768L152.239 67.3802L152.735 66.512ZM147.983 61.808L147.115 62.3041L147.12 62.3123L147.125 62.3205L147.983 61.808ZM146.207 55.04L145.207 55.04L145.208 55.0528L146.207 55.04ZM146.687 31.04L145.98 30.3329L145.98 30.3329L146.687 31.04ZM149.375 31.04L148.636 31.7127L148.668 31.7479L148.703 31.7799L149.375 31.04ZM149.903 46.496H148.903V49.6605L150.722 47.0706L149.903 46.496ZM154.079 42.896L154.54 43.7838L154.546 43.7806L154.079 42.896ZM166.559 43.28L166.041 44.1351L166.051 44.1412L166.559 43.28ZM171.167 48.032L170.293 48.5177L170.299 48.5281L171.167 48.032ZM171.119 61.712L170.257 61.2055L170.251 61.2159L171.119 61.712ZM166.367 66.512L166.864 67.3803L166.874 67.3743L166.367 66.512ZM164.495 63.584L165.002 64.4464L165.009 64.4424L165.015 64.4382L164.495 63.584ZM167.951 59.984L167.084 59.4859L167.08 59.4929L167.076 59.4999L167.951 59.984ZM167.951 49.76L167.072 50.2363L167.078 50.2473L167.084 50.2581L167.951 49.76ZM164.495 46.16L163.989 47.0224L163.989 47.0224L164.495 46.16ZM154.559 46.16L155.066 47.0224L155.066 47.0224L154.559 46.16ZM151.103 49.76L151.979 50.2441L151.983 50.2363L151.103 49.76ZM151.103 59.984L150.228 60.4681L150.228 60.4681L151.103 59.984ZM154.559 63.584L154.04 64.4382L154.046 64.4424L154.053 64.4464L154.559 63.584ZM159.503 67.24C157.168 67.24 155.085 66.703 153.232 65.6438L152.239 67.3802C154.418 68.625 156.847 69.24 159.503 69.24V67.24ZM153.238 65.6472C151.402 64.5811 149.94 63.1348 148.842 61.2955L147.125 62.3205C148.395 64.4492 150.101 66.1389 152.233 67.3768L153.238 65.6472ZM148.852 61.3119C147.79 59.4542 147.237 57.3666 147.207 55.0272L145.208 55.0528C145.242 57.7054 145.873 60.1298 147.115 62.3041L148.852 61.3119ZM147.207 55.04V32.384H145.207V55.04H147.207ZM147.207 32.384C147.207 31.9973 147.31 31.8319 147.395 31.7471L145.98 30.3329C145.425 30.8881 145.207 31.6187 145.207 32.384H147.207ZM147.395 31.7471C147.529 31.6123 147.724 31.512 148.079 31.512V29.512C147.283 29.512 146.55 29.7637 145.98 30.3329L147.395 31.7471ZM148.079 31.512C148.386 31.512 148.533 31.6 148.636 31.7127L150.115 30.3673C149.578 29.776 148.861 29.512 148.079 29.512V31.512ZM148.703 31.7799C148.803 31.8711 148.903 32.0254 148.903 32.384H150.903C150.903 31.5906 150.652 30.8489 150.048 30.3001L148.703 31.7799ZM148.903 32.384V46.496H150.903V32.384H148.903ZM150.722 47.0706C151.68 45.7061 152.946 44.6102 154.54 43.7838L153.619 42.0082C151.757 42.9738 150.239 44.2779 149.085 45.9214L150.722 47.0706ZM154.546 43.7806C156.151 42.9342 157.941 42.504 159.935 42.504V40.504C157.642 40.504 155.528 41.0018 153.613 42.0114L154.546 43.7806ZM159.935 42.504C162.232 42.504 164.258 43.0534 166.041 44.135L167.078 42.425C164.957 41.1386 162.567 40.504 159.935 40.504V42.504ZM166.051 44.1412C167.847 45.2011 169.258 46.6543 170.293 48.5176L172.042 47.5464C170.837 45.3777 169.176 43.6629 167.068 42.4188L166.051 44.1412ZM170.299 48.5281C171.357 50.3798 171.895 52.4781 171.895 54.848H173.895C173.895 52.1619 173.282 49.7162 172.036 47.5359L170.299 48.5281ZM171.895 54.848C171.895 57.2474 171.343 59.3575 170.257 61.2056L171.982 62.2184C173.264 60.0345 173.895 57.5686 173.895 54.848H171.895ZM170.251 61.2159C169.186 63.0792 167.728 64.5535 165.861 65.6497L166.874 67.3743C169.039 66.1025 170.749 64.3768 171.988 62.2081L170.251 61.2159ZM165.871 65.6438C164.022 66.7008 161.908 67.24 159.503 67.24V69.24C162.219 69.24 164.681 68.6272 166.864 67.3802L165.871 65.6438ZM159.503 65.88C161.521 65.88 163.363 65.4083 165.002 64.4464L163.989 62.7216C162.684 63.4877 161.198 63.88 159.503 63.88V65.88ZM165.015 64.4382C166.636 63.452 167.91 62.1246 168.827 60.4681L167.076 59.4999C166.329 60.8514 165.299 61.924 163.976 62.7298L165.015 64.4382ZM168.819 60.4821C169.779 58.8108 170.247 56.9236 170.247 54.848H168.247C168.247 56.6124 167.852 58.1492 167.084 59.4859L168.819 60.4821ZM170.247 54.848C170.247 52.8011 169.777 50.9307 168.819 49.2619L167.084 50.2581C167.854 51.5973 168.247 53.1189 168.247 54.848H170.247ZM168.831 49.2837C167.914 47.5914 166.635 46.2561 165.002 45.2976L163.989 47.0224C165.3 47.7919 166.325 48.8566 167.072 50.2363L168.831 49.2837ZM165.002 45.2976C163.363 44.3357 161.521 43.864 159.503 43.864V45.864C161.198 45.864 162.684 46.2563 163.989 47.0224L165.002 45.2976ZM159.503 43.864C157.514 43.864 155.689 44.3373 154.053 45.2976L155.066 47.0224C156.374 46.2547 157.845 45.864 159.503 45.864V43.864ZM154.053 45.2976C152.42 46.2561 151.141 47.5914 150.224 49.2837L151.983 50.2363C152.73 48.8566 153.755 47.7919 155.066 47.0224L154.053 45.2976ZM150.228 49.2759C149.307 50.9424 148.855 52.8077 148.855 54.848H150.855C150.855 53.1123 151.236 51.5856 151.979 50.2441L150.228 49.2759ZM148.855 54.848C148.855 56.9171 149.305 58.7992 150.228 60.4681L151.979 59.4999C151.238 58.1608 150.855 56.6189 150.855 54.848H148.855ZM150.228 60.4681C151.145 62.1246 152.419 63.452 154.04 64.4382L155.079 62.7298C153.756 61.924 152.726 60.8514 151.979 59.4999L150.228 60.4681ZM154.053 64.4464C155.689 65.4067 157.514 65.88 159.503 65.88V63.88C157.845 63.88 156.374 63.4893 155.066 62.7216L154.053 64.4464ZM185.857 65.696L185.075 66.3188L185.081 66.3266L185.857 65.696ZM184.465 31.04L183.758 30.3329L183.758 30.3329L184.465 31.04ZM187.105 31.04L186.365 31.7127L186.397 31.7479L186.432 31.7799L187.105 31.04ZM188.449 63.056L187.603 63.5888L187.61 63.5998L187.617 63.6107L188.449 63.056ZM192.961 64.88L192.187 65.5132L192.202 65.5315L192.218 65.549L192.961 64.88ZM192.769 67.52L193.409 68.2882L193.415 68.2834L192.769 67.52ZM190.609 67C189.001 67 187.698 66.376 186.633 65.0654L185.081 66.3266C186.512 68.088 188.377 69 190.609 69V67ZM186.639 65.0733C185.561 63.7177 184.985 61.9517 184.985 59.696H182.985C182.985 62.3043 183.657 64.5383 185.075 66.3187L186.639 65.0733ZM184.985 59.696V32.336H182.985V59.696H184.985ZM184.985 32.336C184.985 31.9999 185.077 31.8426 185.172 31.7471L183.758 30.3329C183.213 30.8774 182.985 31.5841 182.985 32.336H184.985ZM185.172 31.7471C185.318 31.601 185.503 31.512 185.809 31.512V29.512C185.027 29.512 184.316 29.775 183.758 30.3329L185.172 31.7471ZM185.809 31.512C186.116 31.512 186.263 31.6 186.365 31.7127L187.845 30.3673C187.307 29.776 186.59 29.512 185.809 29.512V31.512ZM186.432 31.7799C186.545 31.8823 186.633 32.0291 186.633 32.336H188.633C188.633 31.5549 188.369 30.8376 187.778 30.3001L186.432 31.7799ZM186.633 32.336V59.696H188.633V32.336H186.633ZM186.633 59.696C186.633 61.1969 186.929 62.5188 187.603 63.5888L189.295 62.5232C188.881 61.8652 188.633 60.9471 188.633 59.696H186.633ZM187.617 63.6107C188.335 64.6884 189.34 65.352 190.609 65.352V63.352C190.15 63.352 189.715 63.1516 189.281 62.5013L187.617 63.6107ZM190.609 65.352H191.809V63.352H190.609V65.352ZM191.809 65.352C192.008 65.352 192.101 65.4078 192.187 65.5132L193.735 64.2468C193.245 63.6482 192.57 63.352 191.809 63.352V65.352ZM192.218 65.549C192.3 65.6407 192.393 65.8116 192.393 66.176H194.393C194.393 65.4524 194.198 64.7593 193.704 64.211L192.218 65.549ZM192.393 66.176C192.393 66.4253 192.315 66.5942 192.123 66.7566L193.415 68.2834C194.055 67.7418 194.393 67.0147 194.393 66.176H192.393ZM192.129 66.7518C191.97 66.8841 191.706 67 191.233 67V69C192.04 69 192.8 68.7959 193.409 68.2882L192.129 66.7518ZM191.233 67H190.609V69H191.233V67ZM206.927 66.512L207.423 65.6438L207.423 65.6438L206.927 66.512ZM202.175 61.76L203.043 61.2639L203.043 61.2639L202.175 61.76ZM202.175 47.984L201.307 47.4879L201.307 47.4879L202.175 47.984ZM206.927 43.232L207.423 44.1002L207.423 44.1002L206.927 43.232ZM220.607 43.232L220.105 44.0968L220.111 44.1002L220.607 43.232ZM225.359 47.984L226.227 47.4879L226.227 47.4879L225.359 47.984ZM227.135 54.896L228.135 54.896L228.135 54.8837L227.135 54.896ZM225.359 61.76L224.496 61.2535L224.491 61.2639L225.359 61.76ZM220.607 66.512L220.111 65.6437L220.105 65.6472L220.607 66.512ZM218.783 63.584L218.277 62.7216L218.277 62.7216L218.783 63.584ZM222.239 60.032L223.114 60.5161L223.114 60.5161L222.239 60.032ZM222.239 49.76L221.359 50.2363L221.364 50.2441L222.239 49.76ZM218.783 46.16L218.277 47.0224L218.277 47.0224L218.783 46.16ZM208.799 46.16L209.305 47.0224L209.305 47.0224L208.799 46.16ZM205.295 49.76L204.423 49.2697L204.42 49.2759L205.295 49.76ZM205.295 60.032L204.42 60.5161L204.424 60.5231L204.428 60.5301L205.295 60.032ZM208.799 63.584L209.305 62.7216L209.305 62.7216L208.799 63.584ZM213.791 67.24C211.386 67.24 209.273 66.7008 207.423 65.6438L206.431 67.3802C208.613 68.6272 211.075 69.24 213.791 69.24V67.24ZM207.423 65.6438C205.562 64.5803 204.106 63.1248 203.043 61.2639L201.307 62.2561C202.547 64.4272 204.26 66.1397 206.431 67.3802L207.423 65.6438ZM203.043 61.2639C201.986 59.4141 201.447 57.3003 201.447 54.896H199.447C199.447 57.6117 200.06 60.0739 201.307 62.2561L203.043 61.2639ZM201.447 54.896C201.447 52.4573 201.987 50.328 203.043 48.4801L201.307 47.4879C200.058 49.672 199.447 52.1507 199.447 54.896H201.447ZM203.043 48.4801C204.106 46.6192 205.562 45.1637 207.423 44.1002L206.431 42.3638C204.26 43.6043 202.547 45.3168 201.307 47.4879L203.043 48.4801ZM207.423 44.1002C209.273 43.0432 211.386 42.504 213.791 42.504V40.504C211.075 40.504 208.613 41.1168 206.431 42.3638L207.423 44.1002ZM213.791 42.504C216.195 42.504 218.29 43.0433 220.105 44.0968L221.109 42.3672C218.955 41.1167 216.506 40.504 213.791 40.504V42.504ZM220.111 44.1002C221.972 45.1637 223.427 46.6192 224.491 48.4801L226.227 47.4879C224.986 45.3168 223.274 43.6043 221.103 42.3638L220.111 44.1002ZM224.491 48.4801C225.549 50.3321 226.105 52.466 226.135 54.9083L228.135 54.8837C228.101 52.142 227.473 49.6679 226.227 47.4879L224.491 48.4801ZM226.135 54.896C226.135 57.2954 225.582 59.4055 224.496 61.2536L226.221 62.2664C227.504 60.0825 228.135 57.6166 228.135 54.896H226.135ZM224.491 61.2639C223.427 63.1248 221.972 64.5803 220.111 65.6438L221.103 67.3802C223.274 66.1397 224.986 64.4272 226.227 62.2561L224.491 61.2639ZM220.105 65.6472C218.29 66.7007 216.195 67.24 213.791 67.24V69.24C216.506 69.24 218.955 68.6273 221.109 67.3768L220.105 65.6472ZM213.791 65.88C215.809 65.88 217.65 65.4083 219.289 64.4464L218.277 62.7216C216.971 63.4877 215.485 63.88 213.791 63.88V65.88ZM219.289 64.4464C220.917 63.491 222.196 62.1758 223.114 60.5161L221.364 59.5479C220.618 60.8962 219.593 61.949 218.277 62.7216L219.289 64.4464ZM223.114 60.5161C224.037 58.8472 224.487 56.9651 224.487 54.896H222.487C222.487 56.6669 222.105 58.2088 221.364 59.5479L223.114 60.5161ZM224.487 54.896C224.487 52.8269 224.037 50.9448 223.114 49.2759L221.364 50.2441C222.105 51.5832 222.487 53.1251 222.487 54.896H224.487ZM223.118 49.2837C222.201 47.5914 220.922 46.2561 219.289 45.2976L218.277 47.0224C219.587 47.7919 220.612 48.8566 221.359 50.2363L223.118 49.2837ZM219.289 45.2976C217.65 44.3357 215.809 43.864 213.791 43.864V45.864C215.485 45.864 216.971 46.2563 218.277 47.0224L219.289 45.2976ZM213.791 43.864C211.773 43.864 209.931 44.3357 208.293 45.2976L209.305 47.0224C210.61 46.2563 212.097 45.864 213.791 45.864V43.864ZM208.293 45.2976C206.663 46.2541 205.371 47.5848 204.423 49.2697L206.166 50.2503C206.947 48.8632 207.991 47.7939 209.305 47.0224L208.293 45.2976ZM204.42 49.2759C203.497 50.9448 203.047 52.8269 203.047 54.896H205.047C205.047 53.1251 205.429 51.5832 206.17 50.2441L204.42 49.2759ZM203.047 54.896C203.047 56.9651 203.497 58.8472 204.42 60.5161L206.17 59.5479C205.429 58.2088 205.047 56.6669 205.047 54.896H203.047ZM204.428 60.5301C205.377 62.1823 206.668 63.4929 208.293 64.4464L209.305 62.7216C207.985 61.9471 206.941 60.8897 206.162 59.5339L204.428 60.5301ZM208.293 64.4464C209.931 65.4083 211.773 65.88 213.791 65.88V63.88C212.097 63.88 210.61 63.4877 209.305 62.7216L208.293 64.4464ZM244.067 66.512L243.549 67.367L243.557 67.372L243.565 67.3768L244.067 66.512ZM239.411 61.712L238.537 62.1977L238.543 62.2081L239.411 61.712ZM239.363 48.032L240.243 48.5069L240.243 48.5069L239.363 48.032ZM243.827 43.28L244.348 44.1337L244.358 44.1272L243.827 43.28ZM260.099 46.112L259.323 46.7426L259.342 46.7657L259.362 46.7877L260.099 46.112ZM260.483 47.36L261.458 47.5849L261.459 47.5772L261.461 47.5695L260.483 47.36ZM259.667 48.464L259.086 47.6502L259.079 47.6553L259.667 48.464ZM258.467 48.752L258.242 49.7264L258.284 49.7359L258.326 49.7419L258.467 48.752ZM257.363 48.032L258.131 47.3918L258.123 47.3817L258.114 47.3719L257.363 48.032ZM245.603 46.16L245.071 45.3131L245.062 45.3188L245.603 46.16ZM242.435 49.712L241.545 49.2572L241.541 49.2648L241.537 49.2724L242.435 49.712ZM242.531 60.032L243.414 59.5624L243.414 59.5624L242.531 60.032ZM245.891 63.584L245.377 64.4415L245.377 64.4415L245.891 63.584ZM257.027 62.816L256.387 62.0478L256.377 62.056L256.368 62.0644L257.027 62.816ZM258.227 62.288L258.304 63.2851L258.304 63.2851L258.227 62.288ZM259.379 62.672L260.055 61.9348L260.034 61.9158L260.012 61.898L259.379 62.672ZM260.003 63.872L259.006 63.9432L259.008 63.9785L259.013 64.0134L260.003 63.872ZM259.571 65.024L258.898 64.2841L258.895 64.2873L259.571 65.024ZM250.835 67.24C248.465 67.24 246.386 66.7018 244.569 65.6472L243.565 67.3768C245.717 68.6262 248.149 69.24 250.835 69.24V67.24ZM244.586 65.657C242.781 64.5626 241.349 63.0871 240.279 61.2159L238.543 62.2081C239.778 64.3689 241.449 66.0934 243.549 67.367L244.586 65.657ZM240.285 61.2264C239.256 59.3729 238.731 57.2708 238.731 54.896H236.731C236.731 57.5772 237.327 60.0191 238.537 62.1976L240.285 61.2264ZM238.731 54.896C238.731 52.482 239.243 50.3605 240.243 48.5069L238.483 47.5571C237.307 49.7355 236.731 52.19 236.731 54.896H238.731ZM240.243 48.5069C241.25 46.6409 242.617 45.19 244.348 44.1336L243.306 42.4264C241.262 43.674 239.652 45.3911 238.483 47.5571L240.243 48.5069ZM244.358 44.1272C246.071 43.0534 248.059 42.504 250.355 42.504V40.504C247.724 40.504 245.36 41.1386 243.296 42.4328L244.358 44.1272ZM250.355 42.504C254.058 42.504 257.019 43.9072 259.323 46.7426L260.875 45.4814C258.187 42.1728 254.653 40.504 250.355 40.504V42.504ZM259.362 46.7877C259.53 46.9708 259.523 47.0661 259.505 47.1505L261.461 47.5695C261.635 46.7579 261.373 46.0212 260.836 45.4363L259.362 46.7877ZM259.509 47.1351C259.482 47.2512 259.394 47.4299 259.086 47.6503L260.248 49.2777C260.836 48.8581 261.292 48.3008 261.458 47.5849L259.509 47.1351ZM259.079 47.6553C258.946 47.7516 258.81 47.7909 258.609 47.762L258.326 49.7419C259.02 49.8411 259.684 49.6884 260.255 49.2727L259.079 47.6553ZM258.692 47.7776C258.524 47.7387 258.336 47.6378 258.131 47.3918L256.595 48.6722C257.03 49.1942 257.579 49.5733 258.242 49.7264L258.692 47.7776ZM258.114 47.3719C256.068 45.0435 253.458 43.864 250.355 43.864V45.864C252.884 45.864 254.946 46.7965 256.612 48.6921L258.114 47.3719ZM250.355 43.864C248.395 43.864 246.623 44.3389 245.071 45.3131L246.135 47.0069C247.335 46.2531 248.731 45.864 250.355 45.864V43.864ZM245.062 45.3188C243.561 46.2839 242.388 47.6051 241.545 49.2572L243.326 50.1668C244.018 48.8109 244.957 47.7641 246.144 47.0012L245.062 45.3188ZM241.537 49.2724C240.724 50.9342 240.331 52.8168 240.331 54.896H242.331C242.331 53.0712 242.675 51.4978 243.333 50.1516L241.537 49.2724ZM240.331 54.896C240.331 56.9587 240.762 58.8355 241.648 60.5016L243.414 59.5624C242.7 58.2205 242.331 56.6733 242.331 54.896H240.331ZM241.648 60.5016C242.532 62.1635 243.779 63.4826 245.377 64.4415L246.406 62.7265C245.124 61.9574 244.13 60.9085 243.414 59.5624L241.648 60.5016ZM245.377 64.4415C246.988 65.4083 248.818 65.88 250.835 65.88V63.88C249.141 63.88 247.674 63.4877 246.406 62.7265L245.377 64.4415ZM250.835 65.88C253.58 65.88 255.897 65.1379 257.687 63.5676L256.368 62.0644C255.021 63.2461 253.21 63.88 250.835 63.88V65.88ZM257.667 63.5842C257.924 63.3702 258.133 63.2982 258.304 63.2851L258.15 61.2909C257.489 61.3418 256.898 61.6218 256.387 62.0478L257.667 63.5842ZM258.304 63.2851C258.439 63.2746 258.573 63.3048 258.746 63.446L260.012 61.898C259.481 61.4632 258.847 61.2374 258.15 61.2909L258.304 63.2851ZM258.703 63.4092C258.931 63.6181 258.995 63.7908 259.006 63.9432L261.001 63.8008C260.947 63.0572 260.595 62.4299 260.055 61.9348L258.703 63.4092ZM259.013 64.0134C259.028 64.1137 259.02 64.1735 258.898 64.2841L260.244 65.7639C260.826 65.2345 261.107 64.5263 260.993 63.7306L259.013 64.0134ZM258.895 64.2873C256.763 66.2444 254.1 67.24 250.835 67.24V69.24C254.546 69.24 257.708 68.0916 260.247 65.7607L258.895 64.2873Z" fill="#1F2937"/>
</svg>
